<control> default_path=Release\
<region> hikey=d2 pitch_keycenter=d2 sample=2_D_r.wav
<region> lokey=d#2 hikey=d#2 pitch_keycenter=d#2 sample=2_Eb_r.wav
<region> lokey=e2 hikey=e2 pitch_keycenter=e2 sample=2_E_r.wav
<region> lokey=f2 hikey=f#2 pitch_keycenter=f#2 sample=2_Gb_r.wav
<region> lokey=g2 hikey=g2 pitch_keycenter=g2 sample=2_G_r.wav
<region> lokey=g#2 hikey=g#2 pitch_keycenter=g#2 sample=2_Ab_r.wav
<region> lokey=a2 hikey=a#2 pitch_keycenter=a#2 sample=2_Bb_r.wav
<region> lokey=b2 hikey=b2 pitch_keycenter=b2 sample=2_B_r.wav
<region> lokey=c3 hikey=c3 pitch_keycenter=c3 sample=3_C_r.wav
<region> lokey=c#3 hikey=c#3 pitch_keycenter=c#3 sample=3_Db_r.wav
<region> lokey=d3 hikey=d3 pitch_keycenter=d3 sample=3_D_r.wav
<region> lokey=d#3 hikey=d#3 pitch_keycenter=d#3 sample=3_Eb_r.wav
<region> lokey=e3 hikey=e3 pitch_keycenter=e3 sample=3_E_r.wav
<region> lokey=f3 hikey=f3 pitch_keycenter=f3 sample=3_F_r.wav
<region> lokey=f#3 hikey=g3 pitch_keycenter=g3 sample=3_G_r.wav
<region> lokey=g#3 hikey=g#3 pitch_keycenter=g#3 sample=3_Ab_r.wav
<region> lokey=a3 hikey=a3 pitch_keycenter=a3 sample=3_A_r.wav
<region> lokey=a#3 hikey=a#3 pitch_keycenter=a#3 sample=3_Bb_r.wav
<region> lokey=b3 hikey=b3 pitch_keycenter=b3 sample=3_B_r.wav
<region> lokey=c4 hikey=c4 pitch_keycenter=c4 sample=4_C_r.wav
<region> lokey=c#4 hikey=c#4 pitch_keycenter=c#4 sample=4_Db_r.wav
<region> lokey=d4 hikey=d4 pitch_keycenter=d4 sample=4_D_r.wav
<region> lokey=d#4 hikey=d#4 pitch_keycenter=d#4 sample=4_Eb_r.wav
<region> lokey=e4 hikey=f4 pitch_keycenter=f4 sample=4_F_r.wav
<region> lokey=f#4 pitch_keycenter=g4 sample=4_G_r.wav
